Coordinates
version=1
nRows=12
nColumns=34
inDegrees=yes

Units are S.I. units (second, meters, Newtons, ...)
If the header above contains a line with 'inDegrees', this indicates whether rotational values are in degrees (yes) or radians (no).

endheader
time	pelvis_tilt	pelvis_list	pelvis_rotation	pelvis_tx	pelvis_ty	pelvis_tz	hip_flexion_r	hip_adduction_r	hip_rotation_r	knee_angle_r	ankle_angle_r	subtalar_angle_r	mtp_angle_r	hip_flexion_l	hip_adduction_l	hip_rotation_l	knee_angle_l	ankle_angle_l	subtalar_angle_l	mtp_angle_l	lumbar_extension	lumbar_bending	lumbar_rotation	arm_flex_r	arm_add_r	arm_rot_r	elbow_flex_r	pro_sup_r	arm_flex_l	arm_add_l	arm_rot_l	elbow_flex_l	pro_sup_l
     13.00000000	     -7.02800232	    -21.20386922	    -70.35135919	      5.28451081	      1.00603379	      4.17656497	     -5.54595097	      0.32207673	    -20.20197594	     23.56034694	     12.11320678	      4.47638880	      0.00000000	    -10.33743642	      4.39014868	     27.47360958	      7.97042036	      6.90621174	     -7.68418917	      0.00000000	    -11.31802260	     11.04014045	    -15.98597648	     23.32555208	     -2.72181118	     19.12311246	     23.29217429	    118.22209556	     25.56919662	      0.36693765	     22.57484928	     28.15093716	    119.74817918
     13.01666670	     -6.86272446	    -21.15931097	    -69.87110046	      5.28871857	      1.00563350	      4.18141105	     -6.05645862	      0.51831537	    -18.87356798	     23.17225511	     11.85275751	      2.38177776	      0.00000000	    -10.91155273	      4.40349354	     27.94567208	      6.05950089	      4.53184214	     -7.25535176	      0.00000000	    -11.51775029	     11.32500781	    -17.07073553	     23.75277948	     -3.22090168	     21.07234367	     23.31857562	    118.87089752	     25.20651102	      0.56181549	     22.54013409	     27.79471961	    119.74817918
     13.03333330	     -6.50291903	    -20.76411792	    -69.25091872	      5.29285620	      1.00480582	      4.18664121	     -6.00878023	      0.27208915	    -17.86463787	     23.43120584	     11.69435082	      0.22716022	      0.00000000	    -11.60445396	      4.54247491	     28.14680456	      3.32916669	      2.80379417	     -5.78100111	      0.00000000	    -11.28402194	     11.24359404	    -18.19289316	     23.83239887	     -3.60340224	     21.80306328	     23.76717607	    119.06669046	     24.96073166	      0.86815319	     22.31050124	     27.15595272	    119.74817918
     13.05000000	     -6.61820531	    -20.29354408	    -68.67066111	      5.29734195	      1.00348128	      4.19141924	     -5.74550269	      0.25776689	    -17.70554770	     23.71892483	     11.62718044	     -0.84905654	      0.00000000	    -11.88686288	      4.38648735	     27.30952717	      0.76501087	      0.90097094	     -4.71679666	      0.00000000	    -10.69037014	     11.64888345	    -19.18410763	     23.81272374	     -4.18898464	     22.06091420	     23.96665714	    119.12611448	     24.72904141	      1.35633703	     22.37429503	     26.79166084	    119.74817918
     13.06666670	     -6.58588954	    -20.00681874	    -68.11776065	      5.30159580	      1.00296647	      4.19529074	     -5.87061639	      0.21087636	    -17.48728812	     23.60196232	     11.65522512	     -1.58811347	      0.00000000	    -11.48943409	      4.69508630	     26.28790983	      0.00000000	     -0.88353936	     -3.95176962	      0.00000000	    -10.35619829	     12.00928395	    -19.99542274	     23.71483187	     -4.75667074	     22.20260276	     24.07871797	    119.15389065	     24.55954693	      1.78944877	     22.55783059	     26.47373678	    119.74817918
     13.08333330	     -6.21861234	    -19.10693918	    -67.40380285	      5.30549554	      1.00225041	      4.20002883	     -5.43654238	     -0.37723530	    -17.32856696	     23.70252847	     11.12215019	     -3.37342294	      0.00000000	    -10.34746563	      5.58770971	     24.63369150	      0.00000000	     -1.45916233	     -1.23326076	      0.00000000	     -9.28884129	     11.61052784	    -20.83292757	     23.12176035	     -5.21109649	     22.72826400	     23.97461510	    119.20947235	     24.36374704	      2.22069876	     23.26365416	     25.81486887	    119.74817918
     13.10000000	     -6.03616984	    -18.10998461	    -67.37982993	      5.30824569	      1.00118493	      4.20574879	     -4.50570281	     -1.13216383	    -17.03068904	     24.58598704	     11.88982294	     -3.24670049	      0.00000000	     -9.08549500	      6.34962008	     20.67124023	      0.00000000	     -1.03314311	      3.89858314	      0.00000000	     -8.19334250	     11.33944221	    -21.24082897	     22.70434923	     -5.63249836	     22.62766135	     23.82814491	    118.99664384	     24.10475017	      2.20823015	     24.77001651	     25.62595743	    119.74679998
     13.11666670	     -5.35349589	    -17.19178954	    -66.16790071	      5.31216067	      1.00041894	      4.21099577	     -4.15914709	     -2.11850752	    -17.46119126	     25.12641482	     12.04866809	     -4.01222218	      0.00000000	     -8.13391732	      7.40386800	     20.01135578	      0.00000000	     -2.08826022	      6.40682128	      0.00000000	     -7.17714848	     10.56953792	    -22.72989231	     22.14109230	     -5.98251798	     22.92602701	     24.09275430	    118.97843060	     23.82455271	      2.06932574	     25.30337670	     25.32805657	    119.74794009
     13.13333330	     -4.68519624	    -16.44250988	    -65.41833709	      5.31462463	      1.00002223	      4.21654175	     -3.85157368	     -3.00271610	    -17.27822722	     25.79805290	     12.17809343	     -4.71845239	      0.00000000	     -7.42285340	      8.47387359	     19.21311828	      0.00000000	     -3.09620495	      7.08234316	      0.00000000	     -6.39152051	      9.54113739	    -23.68211275	     21.43801251	     -6.33038305	     23.42007257	     24.74288175	    119.05382410	     23.40586216	      1.78488753	     25.35369224	     24.89339335	    119.71154126
     13.15000000	     -4.56781330	    -16.09502551	    -65.10457783	      5.31645986	      1.00005025	      4.22175557	     -3.97598720	     -3.04516443	    -16.93057868	     25.74052050	     12.56224051	     -5.02175714	      0.00000000	     -6.91102212	      9.01676999	     18.06268846	      0.00000000	     -3.95468915	      6.61202797	      0.00000000	     -5.91532733	      9.37084978	    -24.39990240	     21.11796970	     -6.69769532	     23.53107501	     25.06732763	    119.07770049	     23.12267441	      1.43316884	     25.31902057	     24.60708203	    119.69248280
     13.16666670	     -4.43487271	    -14.80506421	    -65.13694500	      5.31798331	      0.99838752	      4.22583663	     -2.52808228	     -3.71545655	    -16.00307584	     26.66335857	     12.73123957	     -6.31187429	      0.00000000	     -5.36187597	     10.05022231	     17.24224948	      0.00000000	     -4.41133209	      7.09720695	      0.00000000	     -4.79948510	      8.83348427	    -24.29855057	     20.59399971	     -7.71321435	     24.51909489	     25.57935596	    119.29871010	     23.03793181	      1.55664820	     25.01286187	     24.15973419	    119.54956779
     13.18333330	     -5.13310587	    -14.53453084	    -66.01673848	      5.31887657	      0.99839747	      4.22970061	     -2.15314780	     -3.08558722	    -15.04955470	     26.41350511	     12.61906860	     -6.41621811	      0.00000000	     -4.45991806	      9.79649963	     16.42874052	      0.00000000	     -4.23307387	      7.03356476	      0.00000000	     -4.36586792	      9.52826612	    -23.79885513	     20.86282778	     -8.37983447	     24.69320335	     25.09128571	    119.35228514	     22.98832002	      1.78274052	     24.65670271	     24.02668692	    119.41498681
